<?xml version="1.0" encoding="UTF-8"?>
<svg width="167px" height="151px" viewBox="0 0 167 151" version="1.1" xmlns="http://www.w3.org/2000/svg" xmlns:xlink="http://www.w3.org/1999/xlink">
    <!-- Generator: Sketch 40.3 (33839) - http://www.bohemiancoding.com/sketch -->
    <title>logo</title>
    <desc>Created with Sketch.</desc>
    <defs>
        <text id="text-1" font-family="AvenirNext-UltraLight, Avenir Next" font-size="32" font-weight="200">
            <tspan x="0" y="32">Top Movies</tspan>
        </text>
        <filter x="-50%" y="-50%" width="200%" height="200%" filterUnits="objectBoundingBox" id="filter-2">
            <feOffset dx="0" dy="2" in="SourceAlpha" result="shadowOffsetOuter1"></feOffset>
            <feGaussianBlur stdDeviation="2" in="shadowOffsetOuter1" result="shadowBlurOuter1"></feGaussianBlur>
            <feColorMatrix values="0 0 0 0 0   0 0 0 0 0   0 0 0 0 0  0 0 0 0.5 0" type="matrix" in="shadowBlurOuter1"></feColorMatrix>
        </filter>
        <path d="M71.9410436,77.2916432 C53.9344299,78.6086291 36.5188067,77.1111776 21.4147969,72.008546 C14.0515232,69.247835 6.50502868,66.1317031 2.14079089,58.7587862 C-0.0179088041,54.9758957 0.592368135,49.7726993 2.90535906,46.7543771 C5.07232436,43.6038051 7.86334259,41.6792975 10.50558,40.0964347 C32.6146874,29.5343731 47.8054861,32.306105 47.6567053,32.409425 C48.1361102,33.9647357 32.485193,33.37099 12.9480654,44.0653012 C8.41989312,46.8783611 4.14933215,51.7564438 6.95963679,56.1799184 C9.71897022,60.7755931 16.513295,64.036373 23.3434373,66.2501767 C37.4101141,70.6819169 54.2113276,72.001658 71.4092899,70.7232449 C79.9862294,69.9586767 88.3551513,68.5604124 95.9347083,66.0683335 C103.216704,63.6961057 111.06627,59.7093304 112.680818,54.568126 C114.21822,49.6735121 107.514817,44.7237942 101.974108,42.1711008 C96.1358379,39.378705 90.0867949,37.7490038 84.5722609,36.5064083 C62.2220734,31.9837465 47.6649709,33.6341117 47.6567053,32.4080474 C47.5244556,31.8418537 61.9727277,28.4515793 85.4497923,31.9313977 C91.2811744,32.9384235 97.6635967,34.3421982 104.248526,37.2076069 C107.52997,38.6623528 110.880294,40.4821628 113.966119,43.2580275 C116.937603,45.8740905 119.982099,50.8127876 118.55215,56.1069056 C114.944215,66.0366487 105.814858,69.1045646 97.9900879,72.1807461 C89.7451501,74.9910507 80.9643257,76.4843694 71.9410436,77.2916432 L71.9410436,77.2916432 Z" id="path-3"></path>
        <filter x="-50%" y="-50%" width="200%" height="200%" filterUnits="objectBoundingBox" id="filter-4">
            <feOffset dx="0" dy="2" in="SourceAlpha" result="shadowOffsetOuter1"></feOffset>
            <feGaussianBlur stdDeviation="2" in="shadowOffsetOuter1" result="shadowBlurOuter1"></feGaussianBlur>
            <feColorMatrix values="0 0 0 0 0   0 0 0 0 0   0 0 0 0 0  0 0 0 0.5 0" type="matrix" in="shadowBlurOuter1"></feColorMatrix>
        </filter>
        <path d="M86.6551926,54.6149645 C78.7932276,70.881669 68.8152685,85.1908034 56.819125,95.7129146 C50.7025796,100.633703 44.2884725,105.723936 35.7018897,105.706027 C31.4423496,105.706027 27.1401038,102.667041 25.7115323,99.116965 C24.2099479,95.6715866 23.7250326,92.2840674 23.778759,89.2175291 C25.6839803,64.8023188 35.6095905,53.0141929 35.6495409,53.2084345 C37.2062293,53.5624778 28.9406274,66.8411672 28.4391809,89.0673707 C28.5879617,94.3766423 30.651607,100.567578 35.9264386,100.247975 C41.2370878,100.257618 47.4638412,95.8782267 52.8061752,91.1530576 C63.6768193,81.2302025 73.2290999,67.3040409 80.7025816,51.7977718 C84.3215376,43.9922884 87.3123079,36.0586882 88.9144571,28.2435616 C90.4697678,20.7411503 90.9574383,12.0016539 87.3219511,8.02865463 C83.8435103,4.22923296 76.237779,7.55613772 71.2687746,11.1158569 C65.952615,14.789917 61.4657708,19.12247 57.6470627,23.2965989 C42.5568289,40.3857308 36.721314,53.8035579 35.6495409,53.2056793 C35.094368,53.0389897 39.3731946,38.8262873 54.1190283,20.2465918 C57.8853876,15.6936228 62.3736094,10.9243705 68.1237131,6.64416631 C70.9312626,4.44276101 74.3284249,2.6188182 78.1829506,1.22193148 C81.9685963,-0.0137760031 87.7366088,-0.143270433 91.5814913,3.70574484 C98.3496416,11.7495531 96.4581964,21.1943808 95.2403977,29.5164643 C93.5721237,38.0672295 90.4601246,46.409977 86.6551926,54.6149645 L86.6551926,54.6149645 Z" id="path-5"></path>
        <filter x="-50%" y="-50%" width="200%" height="200%" filterUnits="objectBoundingBox" id="filter-6">
            <feOffset dx="0" dy="2" in="SourceAlpha" result="shadowOffsetOuter1"></feOffset>
            <feGaussianBlur stdDeviation="2" in="shadowOffsetOuter1" result="shadowBlurOuter1"></feGaussianBlur>
            <feColorMatrix values="0 0 0 0 0   0 0 0 0 0   0 0 0 0 0  0 0 0 0.5 0" type="matrix" in="shadowBlurOuter1"></feColorMatrix>
        </filter>
        <path d="M44.9455878,75.8864909 C34.8092047,60.9395275 27.3949598,45.1356967 24.2815831,29.4916675 C23.0734277,21.7357778 21.8666498,13.6327327 26.1757836,6.20608941 C28.3096865,2.51412057 33.0954699,0.318225673 36.8824932,0.854112195 C40.6144125,1.27428029 43.7897812,2.54580538 46.4182426,4.12866814 C66.6207512,17.9776841 71.8652756,32.4686618 71.6792995,32.409425 C70.5937505,33.5803853 63.2180784,19.7837181 44.2251029,8.23804988 C39.5536602,5.7129085 33.1519516,4.4041882 30.7948774,9.12797968 C28.1305984,13.7236543 28.804245,21.3059665 30.2300613,28.2945329 C33.3902764,42.6739249 40.6750269,57.890898 50.3636899,72.13253 C55.3120302,79.1679348 60.6901818,85.7308227 66.6565688,91.0208079 C72.3736101,96.1151739 79.698311,100.902335 84.9634994,99.7520387 C89.9972509,98.6375601 90.9105999,90.3912446 90.314099,84.3022512 C89.7851005,77.8661026 88.2780057,71.8101716 86.5739141,66.4154887 C79.3098277,44.8009398 70.6295681,33.0362331 71.6779219,32.4108026 C72.1036004,32.0071657 82.2537596,42.8337266 90.9739695,64.8822196 C93.0362372,70.4201729 94.9194168,76.6992751 95.7556202,83.8090703 C96.2584443,87.3481255 96.1399707,91.199896 95.4305066,95.2362649 C94.6025688,99.1362514 91.8253265,104.201688 86.5739141,105.604085 C76.2281358,107.430783 68.9860909,101.081423 62.3915182,95.8616955 C55.8203647,90.1446541 50.1556722,83.2800718 44.9455878,75.8864909 L44.9455878,75.8864909 Z" id="path-7"></path>
        <filter x="-50%" y="-50%" width="200%" height="200%" filterUnits="objectBoundingBox" id="filter-8">
            <feOffset dx="0" dy="2" in="SourceAlpha" result="shadowOffsetOuter1"></feOffset>
            <feGaussianBlur stdDeviation="2" in="shadowOffsetOuter1" result="shadowBlurOuter1"></feGaussianBlur>
            <feColorMatrix values="0 0 0 0 0   0 0 0 0 0   0 0 0 0 0  0 0 0 0.5 0" type="matrix" in="shadowBlurOuter1"></feColorMatrix>
        </filter>
    </defs>
    <g id="Page-1" stroke="none" stroke-width="1" fill="none" fill-rule="evenodd">
        <g id="logo" transform="translate(3.000000, 1.000000)">
            <g id="logo__item--business" transform="translate(0.000000, 103.000000)" fill="#76323F">
                <g id="Group" transform="translate(0.000000, 0.829165)">
                    <g id="Top-Movies">
                        <use fill-opacity="1" filter="url(#filter-2)" xlink:href="#text-1"></use>
                        <use fill-rule="evenodd" xlink:href="#text-1"></use>
                        <use fill-opacity="1" xlink:href="#text-1"></use>
                    </g>
                </g>
            </g>
            <g id="logo__item--logo_0" transform="translate(16.000000, 0.000000)">
                <g id="Group" transform="translate(0.017911, 0.398403)">
                    <g id="Shape">
                        <g>
                            <g>
                                <use fill="black" fill-opacity="1" filter="url(#filter-4)" xlink:href="#path-3"></use>
                                <use fill="#76323F" fill-rule="evenodd" xlink:href="#path-3"></use>
                            </g>
                            <g>
                                <use fill="black" fill-opacity="1" filter="url(#filter-6)" xlink:href="#path-5"></use>
                                <use fill="#76323F" fill-rule="evenodd" xlink:href="#path-5"></use>
                            </g>
                            <g>
                                <use fill="black" fill-opacity="1" filter="url(#filter-8)" xlink:href="#path-7"></use>
                                <use fill="#76323F" fill-rule="evenodd" xlink:href="#path-7"></use>
                            </g>
                        </g>
                    </g>
                </g>
            </g>
        </g>
    </g>
</svg>